#!OML:ASF E:\emotionWalksFemale\Project 1\Capture day 1\Session 1\Female1.ASF
:FULLY-SPECIFIED
:DEGREES
210
root 8.96815 18.4791 19.3977 184.879 -1.33176 -180.237
lowerback 8.83 0.874631 0.958049
upperback -4.12644 1.24605 -0.00609205
thorax -9.33576 0.523103 -0.750577
lowerneck -6.43616 -2.76385 -6.9487
upperneck 6.1928 -3.44424 4.99026
head 3.42978 -1.70048 2.74211
rclavicle -1.90243e-015 -4.96962e-015
rhumerus -39.1674 10.4001 -90.5651
rradius 26.1071
rwrist 39.5018
rhand 1.90735 -61.7949
rfingers 7.12502
rthumb 27.416 -89.8201
lclavicle -1.90243e-015 -4.96962e-015
lhumerus -35.3346 3.88616 83.4668
lradius 24.9698
lwrist -40.7715
lhand 7.97295 -23.9483
lfingers 7.12502
lthumb 33.2013 3.00923
rfemur -13.0267 35.9006 18.4099
rtibia 10.4074
rfoot -52.9086 -26.9007
rtoes 66.895
lfemur -15.1785 -25.5229 -20.7616
ltibia 19.9698
lfoot -4.62374 32.1585
ltoes 52.1896
211
root 8.96896 18.4254 19.3384 185.04 -1.6047 -180.251
lowerback 8.6825 0.852817 1.07939
upperback -4.12023 1.22787 -0.0230065
thorax -9.23949 0.506833 -0.830879
lowerneck -6.2507 -2.78217 -6.9419
upperneck 5.93618 -3.47492 5.02328
head 3.30778 -1.71374 2.7492
rclavicle 1.32634e-014 5.96354e-016
rhumerus -39.1048 10.3226 -90.5307
rradius 26.2585
rwrist 38.9963
rhand 1.58758 -61.8506
rfingers 7.12502
rthumb 27.1101 -89.9239
lclavicle 1.32634e-014 5.96354e-016
lhumerus -35.3433 4.17007 83.2861
lradius 25.0602
lwrist -40.8561
lhand 7.77853 -24.4564
lfingers 7.12502
lthumb 33.0164 2.54038
rfemur -13.6209 35.9975 17.9434
rtibia 10.4177
rfoot -52.2569 -26.6789
rtoes 66.7703
lfemur -16.0393 -25.98 -20.3387
ltibia 20.0007
lfoot -3.3936 31.3921
ltoes 49.0612
212
root 8.9707 18.3596 19.2781 185.141 -1.82308 -180.112
lowerback 8.56013 0.845004 1.33752
upperback -4.11025 1.24921 0.0047519
thorax -9.15152 0.503032 -0.947457
lowerneck -6.05993 -2.80343 -7.04239
upperneck 5.73916 -3.51043 5.15434
head 3.21281 -1.72976 2.811
rclavicle -5.48211e-015 0
rhumerus -39.0705 9.91813 -90.3872
rradius 26.2791
rwrist 39.0602
rhand 1.07925 -61.3846
rfingers 7.12502
rthumb 26.6237 -89.5327
lclavicle -5.48211e-015 0
lhumerus -35.3722 4.10807 83.2807
lradius 25.1773
lwrist -40.5713
lhand 7.32794 -24.5028
lfingers 7.12502
lthumb 32.5878 2.58344
rfemur -13.9945 35.4382 17.8662
rtibia 10.4109
rfoot -51.1398 -26.9215
rtoes 66.5693
lfemur -16.751 -26.1799 -19.8237
ltibia 19.984
lfoot -2.29709 30.5706
ltoes 45.6548
213
root 8.97438 18.2837 19.2198 185.211 -2.08374 -180.111
lowerback 8.61357 0.824664 1.39989
upperback -4.17347 1.23078 0.0280149
thorax -9.25193 0.488681 -0.9563
lowerneck -6.06251 -2.85664 -7.26931
upperneck 5.8109 -3.57544 5.3008
head 3.25479 -1.76332 2.90223
rclavicle -5.72282e-016 -7.95139e-015
rhumerus -39.1593 9.96235 -90.4074
rradius 26.3299
rwrist 38.7504
rhand 0.506337 -61.1014
rfingers 7.12502
rthumb 26.0753 -89.3316
lclavicle -5.72282e-016 -7.95139e-015
lhumerus -35.5269 3.92092 83.3297
lradius 25.287
lwrist -40.3009
lhand 7.03233 -24.6196
lfingers 7.12502
lthumb 32.3065 2.52443
rfemur -14.1823 34.6773 17.7613
rtibia 10.3211
rfoot -49.7615 -27.7573
rtoes 66.1555
lfemur -17.3617 -26.3301 -19.4758
ltibia 19.9423
lfoot -2.08286 29.818
ltoes 43.7629
214
root 8.98048 18.1982 19.1594 185.195 -2.28063 -180.19
lowerback 9.16877 0.81021 1.29779
upperback -4.49296 1.2012 0.0294748
thorax -9.93446 0.467859 -0.90522
lowerneck -6.0528 -2.96315 -7.41703
upperneck 6.31064 -3.73156 5.32373
head 3.44331 -1.85131 2.9339
rclavicle 1.84186e-014 2.98177e-015
rhumerus -39.7176 10.5433 -90.783
rradius 26.4854
rwrist 37.7219
rhand -0.00590364 -61.1839
rfingers 7.12502
rthumb 25.5847 -89.4855
lclavicle 1.84186e-014 2.98177e-015
lhumerus -36.1248 3.85418 83.2205
lradius 25.3221
lwrist -40.2106
lhand 6.69975 -24.903
lfingers 7.12502
lthumb 31.9898 2.30495
rfemur -14.1818 33.4952 17.8007
rtibia 10.258
rfoot -47.0776 -30.283
rtoes 65.2335
lfemur -17.7834 -26.4294 -19.2665
ltibia 19.8333
lfoot -1.9106 29.2343
ltoes 41.9611
215
root 8.98526 18.1019 19.0939 185.016 -2.32755 -180.17
lowerback 8.86801 0.840618 1.31161
upperback -4.23453 1.24666 0.0398886
thorax -9.47065 0.499428 -0.90206
lowerneck -6.02125 -2.95104 -7.26809
upperneck 5.98204 -3.70808 5.23291
head 3.31334 -1.83446 2.8727
rclavicle -6.34014e-015 3.97569e-016
rhumerus -39.5452 10.8583 -90.8976
rradius 26.6621
rwrist 37.225
rhand 0.00523029 -61.4277
rfingers 7.12502
rthumb 25.5954 -89.7277
lclavicle -6.34014e-015 3.97569e-016
lhumerus -35.9154 3.71237 83.248
lradius 25.321
lwrist -39.9635
lhand 6.27088 -25.0641
lfingers 7.12502
lthumb 31.5814 2.2249
rfemur -13.9538 31.8004 18.2256
rtibia 10.3486
rfoot -42.3547 -34.1048
rtoes 63.6861
lfemur -17.8547 -26.0631 -19.163
ltibia 19.631
lfoot -0.383401 28.5373
ltoes 37.5058
216
root 8.98916 17.993 19.0295 184.754 -2.37137 -180.146
lowerback 9.08089 0.897824 1.32842
upperback -4.2025 1.33264 0.0453204
thorax -9.55909 0.54066 -0.924299
lowerneck -5.88982 -3.02259 -7.26267
upperneck 5.91947 -3.81553 5.27091
head 3.27522 -1.8878 2.8793
rclavicle 7.68177e-015 5.76476e-015
rhumerus -39.738 10.7541 -90.8649
rradius 26.8598
rwrist 37.3687
rhand -0.186169 -61.1705
rfingers 7.12502
rthumb 25.412 -89.4967
lclavicle 7.68177e-015 5.76476e-015
lhumerus -36.203 3.19293 83.4183
lradius 25.646
lwrist -39.5341
lhand 6.01894 -25.2386
lfingers 7.12502
lthumb 31.3414 2.0972
rfemur -13.5997 29.9027 18.7404
rtibia 10.4848
rfoot -35.8248 -38.0296
rtoes 61.3897
lfemur -17.7429 -25.3799 -19.1858
ltibia 19.4197
lfoot 2.1823 27.4466
ltoes 30.2383
217
root 8.99431 17.8712 18.9656 184.479 -2.45322 -180.078
lowerback 9.25296 0.947231 1.28284
upperback -4.16606 1.4035 0.105063
thorax -9.62168 0.580528 -0.850391
lowerneck -5.80028 -3.10119 -7.49402
upperneck 5.91626 -3.92978 5.54472
head 3.28277 -1.94278 3.0134
rclavicle -2.5604e-014 -2.38542e-015
rhumerus -39.8665 10.9881 -90.9493
rradius 26.9296
rwrist 37.2348
rhand -0.818933 -60.5739
rfingers 7.12502
rthumb 24.8057 -88.985
lclavicle -2.5604e-014 -2.38542e-015
lhumerus -36.4303 2.87441 83.5781
lradius 25.9462
lwrist -39.2103
lhand 6.62318 -25.1054
lfingers 7.12502
lthumb 31.9169 2.11721
rfemur -13.2242 27.9253 19.3318
rtibia 10.6329
rfoot -26.454 -42.0223
rtoes 57.1601
lfemur -17.6133 -24.6276 -19.175
ltibia 19.2697
lfoot 4.32511 26.1644
ltoes 24.2862
218
root 9.00169 17.7371 18.8997 184.15 -2.57684 -179.968
lowerback 9.34072 0.946951 1.26063
upperback -4.10109 1.41128 0.190065
thorax -9.60475 0.59037 -0.749783
lowerneck -5.67443 -3.13595 -7.59203
upperneck 5.92944 -3.98636 5.63504
head 3.27396 -1.97282 3.06152
rclavicle -1.12795e-014 0
rhumerus -40.0358 11.1325 -91.0183
rradius 26.9459
rwrist 37.4312
rhand -1.44696 -60.086
rfingers 7.12502
rthumb 24.2037 -88.5787
lclavicle -1.12795e-014 0
lhumerus -36.5225 2.9338 83.548
lradius 25.9519
lwrist -38.9395
lhand 7.50843 -24.6515
lfingers 7.12502
lthumb 32.7595 2.39917
rfemur -12.8327 26.0547 19.9857
rtibia 10.9104
rfoot -15.4299 -44.1493
rtoes 50.9186
lfemur -17.4156 -23.7891 -19.1583
ltibia 19.2027
lfoot 6.23528 24.7696
ltoes 19.5855
